<svg xmlns="http://www.w3.org/2000/svg" viewBox="0 0 64 64" fill="none">
  <defs>
    <linearGradient id="scenora-bg" x1="0%" y1="0%" x2="100%" y2="100%">
      <stop offset="0%" stop-color="#6366F1" />
      <stop offset="100%" stop-color="#3730A3" />
    </linearGradient>
    <linearGradient id="scenora-play" x1="0%" y1="0%" x2="100%" y2="100%">
      <stop offset="0%" stop-color="#FF8533" />
      <stop offset="100%" stop-color="#FF4500" />
    </linearGradient>
    <filter id="shadow" x="-10%" y="-10%" width="120%" height="120%">
      <feDropShadow dx="0" dy="2" stdDeviation="3" flood-color="#312E81" flood-opacity="0.35" />
    </filter>
  </defs>
  <!-- Squircle Base -->
  <rect x="3" y="3" width="58" height="58" rx="15" fill="url(#scenora-bg)" filter="url(#shadow)" />
  <rect x="3" y="3" width="58" height="58" rx="15" stroke="#FFFFFF" stroke-opacity="0.25" stroke-width="1.5" />
  
  <!-- Lens Ring -->
  <circle cx="32" cy="32" r="18" stroke="#FFFFFF" stroke-opacity="0.16" stroke-width="2" />
  
  <!-- Film Clapper Slashes -->
  <line x1="22" y1="11" x2="28" y2="20" stroke="#FFFFFF" stroke-opacity="0.22" stroke-width="2.5" stroke-linecap="round" />
  <line x1="31" y1="11" x2="37" y2="20" stroke="#FFFFFF" stroke-opacity="0.22" stroke-width="2.5" stroke-linecap="round" />
  
  <!-- Smooth Play Prism -->
  <path d="M 23 20 C 23 18.5 24.5 17.5 26 18.5 L 45 29.5 C 46.5 30.5 46.5 32.5 45 33.5 L 26 44.5 C 24.5 45.5 23 44.5 23 43 Z" fill="url(#scenora-play)" />
  <path d="M 25 21 L 43 31.5" stroke="#FFE4B5" stroke-opacity="0.8" stroke-width="1.5" stroke-linecap="round" />
  
  <!-- AI Golden Magic Star -->
  <path d="M 48 11 L 49.5 14.5 L 53 16 L 49.5 17.5 L 48 21 L 46.5 17.5 L 43 16 L 46.5 14.5 Z" fill="#FFC107" />
  <circle cx="48" cy="16" r="1.2" fill="#FFFFFF" />
</svg>